# xmcd
#
# Track frame offsets:
#  150
#  12105
#  17099
#  27278
#  42847
#  47795
#  60243
#  72110
#  93334
#  105772
#  110249
#  123721
#  127658
#  140919
#  156729
#  173280
#  187208
#  209449
#  224476
#  236322
#  252643
#  269759
#  285619
#  305741
#  321897
#  343599
#
# Disc length: 4728 seconds
#
# Revision: 0
# Processed by: cddbd v1.5.1PL2 Copyright (c) Steve Scherf et al.
# Submitted via: AltoMP3_Maker 3.0
#
DISCID=8812761a
DTITLE=Παπακωνσταντίνου Θανάσης - Αγία Νοσταλγία
DYEAR=1900
DGENRE=
TTITLE0=Στο χαραυγέν ξεχνιέμαι
TTITLE1=Επιτύμβιο
TTITLE2=Χέρια τρελαμένα
TTITLE3=Λύκος κακός
TTITLE4=Με το φεγγάρι πιές
TTITLE5=Πάστα με κερασάκι
TTITLE6=Οργανικό
TTITLE7=Όνειρο
TTITLE8=Τρια Ρουμπαγιάτ
TTITLE9=Διάφανες αυλαίες
TTITLE10=Καντηλανάφτης
TTITLE11=Ο κομήτης του Χάλεϋ
TTITLE12=’για Νοσταλγία
TTITLE13=Ο προσκυνητής
TTITLE14=Απόγευμα στο δέντρο
TTITLE15=Το άδειο παράθυρο
TTITLE16=Ό,τι δεν είναι πια εδώ
TTITLE17=Γιατί δεν έρχεσαι ποτέ
TTITLE18=Δεν είναι φως
TTITLE19=Έλα να ζήσουμε ξανά
TTITLE20=Μέσα στον ίδιο ουρανό
TTITLE21=Ο κόσμος που αλλάζει
TTITLE22=Μικρή πτητική θεολογία
TTITLE23=Τα βράδια που ξεχνάμε
TTITLE24=Ο φλεγόμενος ποδηλάτης
TTITLE25=Γυρισμός
EXTD=
EXTT0=
EXTT1=
EXTT2=
EXTT3=
EXTT4=
EXTT5=
EXTT6=
EXTT7=
EXTT8=
EXTT9=
EXTT10=
EXTT11=
EXTT12=
EXTT13=
EXTT14=
EXTT15=
EXTT16=
EXTT17=
EXTT18=
EXTT19=
EXTT20=
EXTT21=
EXTT22=
EXTT23=
EXTT24=
EXTT25=
PLAYORDER=
